<?xml version="1.0" encoding="UTF-8" standalone="no"?><!DOCTYPE svg PUBLIC "-//W3C//DTD SVG 1.1//EN" "http://www.w3.org/Graphics/SVG/1.1/DTD/svg11.dtd"><svg width="100%" height="100%" viewBox="0 0 2060 265" version="1.1" xmlns="http://www.w3.org/2000/svg" xmlns:xlink="http://www.w3.org/1999/xlink" xml:space="preserve" style="fill-rule:evenodd;clip-rule:evenodd;stroke-linejoin:round;stroke-miterlimit:1.41421;"><g><g id="time4-text"><path id="recruitment" d="M1388,95.159l18.537,0l-22.699,74.713c-5.185,28.697 18.5,26.008 47.984,7.338l24.811,-82.074l17.919,0l-33.138,110.076l-18.798,0l3.628,-12.341c-41.476,30.613 -68.973,13.798 -62.375,-18.07l24.131,-79.642Zm505.699,-0.78l18.152,0l-2.982,12.279c38.58,-23.627 68.62,-18.578 62.071,18.484l-24.172,79.616l-18.818,0l23.617,-77.128c2.959,-24.318 -15.853,-22.769 -48.127,-5.227l-25.043,82.265l-18.02,0l33.322,-110.289Zm-391.138,0.628l17.586,0l-33.057,109.6l-18.11,0l33.581,-109.6Zm-393.79,57.121l76.443,0c14.006,-39.615 5.592,-59.416 -24.215,-60.309c-39.948,1.421 -61.783,27.707 -73.229,68.255c-7.526,48.385 34.032,58.129 81.627,38.089l5.731,-19.879c-46.753,25.59 -76.759,15.814 -66.357,-26.156Zm671.816,0l76.442,0c14.007,-39.615 5.593,-59.416 -24.215,-60.309c-39.947,1.421 -61.782,27.707 -73.229,68.255c-7.525,48.385 34.032,58.129 81.627,38.089l5.731,-19.879c-46.752,25.59 -76.759,15.814 -66.356,-26.156Zm-484.2,-50.984l-7.024,20.293c-26.996,-23.484 -52.919,-14.297 -69.057,18.837c-21.954,48.677 9.541,67.514 52.635,37.649l-6.287,20.952c-40.798,17.063 -70.77,10.575 -73.38,-24.083c0.857,-27.592 11.284,-51.296 34.451,-69.823c20.806,-15.316 43.769,-16.08 68.662,-3.825Zm262.314,-37.367l19.403,0l-9.449,31.067l33.361,0l-3.962,14.815l-34.179,0l-20.05,65.043c-5.074,16.852 6.192,20.364 30.065,13.582l-4.76,15.281c-33.206,9.477 -49.365,2.5 -44.204,-25.053l21.01,-68.491l-12.916,0l4.547,-14.918l12.442,0l8.692,-31.326Zm457.981,0l19.403,0l-9.449,31.067l33.361,0l-3.961,14.815l-34.18,0l-20.05,65.043c-5.074,16.852 6.192,20.364 30.065,13.582l-4.759,15.281c-33.207,9.477 -49.366,2.5 -44.205,-25.053l21.011,-68.491l-12.917,0l4.547,-14.918l12.442,0l8.692,-31.326Zm-903.08,73.869l58.162,0c6.331,-18.984 0.917,-32.432 -17.353,-31.502c-21.742,1.107 -35.016,15.205 -40.809,31.502Zm671.816,0l58.161,0c6.332,-18.984 0.917,-32.432 -17.353,-31.502c-21.742,1.107 -35.015,15.205 -40.808,31.502Zm-469.798,-42.976l17.877,0l-3.952,16.545c16.133,-11.935 30.924,-17.436 44.133,-15.351l-6.225,19.15c-15,-3.579 -29.401,0.164 -43.172,11.582l-23.993,77.907l-18.019,0l33.351,-109.833Zm-272.322,0l17.878,0l-3.952,16.545c16.133,-11.935 30.924,-17.436 44.132,-15.351l-6.225,19.15c-15,-3.579 -29.4,0.164 -43.172,11.582l-23.992,77.907l-18.02,0l33.351,-109.833Zm574.129,0.771l16.898,0l-2.84,11.066c30.462,-19.741 51.179,-20.687 58.323,4.537c32.301,-26.987 68.075,-25.835 62.091,12.017l-24.496,82.082l-18.415,0l22.881,-80.847c3.888,-20.352 -18.838,-18.566 -43.125,-1.051l-24.03,81.294l-18.498,0l23.446,-82.051c0.395,-18.467 -15.611,-16.493 -43.396,0.162l-24.193,81.879l-19.558,0l34.912,-109.088Zm-104.589,-38.232l21.021,0l-6.064,18.97l-20.444,0l5.487,-18.97Z" style="fill:#2a2b58;"/><path id="time4" d="M571.307,91.404l26.184,0l-35.886,116.624l-25.6,0l35.302,-116.624Zm441.516,-37.361l-25.16,0l-89.656,77.405l-8.194,26.305l64.648,0l-15.823,50.182l26.942,0l16.046,-49.345l16.378,0l7.569,-22.98l-16.862,0l24.112,-81.567Zm-149.413,101.213l6.954,-24.558c4.94,-44.327 -33.457,-52.167 -73.624,-31.107c-24.498,17.267 -37.241,43.41 -39.11,77.766c6.283,37.681 38.904,41.936 89.56,23.304l8.317,-25.57l-7.58,0c-45.001,24.03 -70.571,16.808 -60.739,-19.132l76.222,-0.703Zm-350.051,-95.65l26.114,0l-9.359,31.229l35.068,0l-7.67,22.779l-33.817,0l-19.161,61.849c-3.284,14.457 4.747,17.158 24.093,8.104l7.499,0l-7.276,23.294c-37.307,9.521 -56.08,1.53 -50.834,-29.156l19.142,-63.883l-13.14,0l7.144,-22.356l12.826,0l9.371,-31.86Zm412.556,75.177l35.68,0l13.005,-41.467l-48.685,41.467Zm-131.558,-0.799l49.782,0c4.336,-15.692 -1.016,-23.369 -15.189,-23.75c-20.176,2.877 -30.211,11.666 -34.593,23.75Zm-177.095,-42.398l25.428,0l-1.617,6.268c26.21,-14.987 43.911,-12.517 53.774,6.033c38.948,-26.517 68.864,-16.489 64.011,17.454l-26.317,87.095l-25.742,0l25.377,-82.316c2.024,-20.962 -13.774,-16.057 -37.028,-0.333l-24.921,82.336l-26.246,0l24.739,-82.892c4.012,-18.667 -11.839,-14.34 -35.999,-0.394l-25.306,82.858l-26.478,0l36.325,-116.109Zm-35.88,-38.066l28.681,0l-8.084,25.477l-28.015,0l7.418,-25.477Z" style="fill:#2692ca;"/></g><g id="time4-logo"><path id="four" d="M232.376,59.04l-87.905,58.711c-18.47,15.75 -14.552,24.588 14.392,25.702l145.771,-1.073l-30.613,47.131c-14.318,26.755 7.119,36.907 53.04,35.691l41.907,-82.484l64.713,-0.122l10.073,-19.317c5.466,-9.07 1.716,-13.301 -10.424,-13.127l-46.89,-1.086l25.864,-51.763c-32.198,-1.224 -56.26,5.285 -67.349,24.544l-17.189,27.258l-111.983,0.447l45.815,-34.317c11.329,-9.207 10.083,-15.799 -3.679,-16.008l-25.543,-0.187Z" style="fill:#2a2b58;"/><path id="time" d="M145.319,194.341c8.345,9.769 -2.221,32.514 -23.581,50.759c-21.361,18.246 -45.477,25.127 -53.823,15.357c-8.345,-9.77 2.222,-32.514 23.582,-50.76c21.36,-18.245 45.477,-25.126 53.822,-15.356Zm-59.372,-21.653c6.023,8.608 -8.032,28.85 -31.365,45.173c-23.333,16.324 -47.166,22.587 -53.188,13.979c-6.023,-8.609 8.032,-28.851 31.365,-45.174c23.333,-16.323 47.166,-22.587 53.188,-13.978Zm148.51,-1.483c8.881,9.092 2.712,29.542 -13.766,45.638c-16.479,16.097 -37.068,21.785 -45.949,12.693c-8.881,-9.092 -2.712,-29.541 13.767,-45.638c16.478,-16.097 37.067,-21.784 45.948,-12.693Zm-153.21,-48.588c4.111,7.689 -9.085,23.675 -29.45,35.677c-20.365,12.001 -40.237,15.504 -44.348,7.815c-4.111,-7.688 9.085,-23.674 29.45,-35.676c20.365,-12.002 40.237,-15.504 44.348,-7.816Zm37.469,-52.138c2.41,6.17 -9.109,17.763 -25.706,25.872c-16.597,8.11 -32.027,9.684 -34.437,3.514c-2.41,-6.171 9.109,-17.764 25.706,-25.873c16.597,-8.109 32.028,-9.683 34.437,-3.513Zm224.127,-30.161c0.352,6.709 -7.903,13.773 -18.423,15.766c-10.52,1.993 -19.347,-1.836 -19.698,-8.544c-0.352,-6.709 7.903,-13.773 18.423,-15.766c10.52,-1.993 19.346,1.836 19.698,8.544Zm-169.434,-7.354c1.437,5.584 -8.115,14.391 -21.317,19.654c-13.202,5.263 -25.088,5.002 -26.525,-0.582c-1.437,-5.584 8.114,-14.391 21.317,-19.654c13.202,-5.263 25.087,-5.002 26.525,0.582Zm144.505,-18.673c0.536,5.544 -6.854,11.997 -16.492,14.4c-9.638,2.403 -17.897,-0.148 -18.432,-5.692c-0.536,-5.545 6.854,-11.997 16.492,-14.4c9.638,-2.403 17.897,0.147 18.432,5.692Zm-89.052,-2.154c0.72,4.889 -7.651,11.573 -18.682,14.917c-11.032,3.345 -20.572,2.091 -21.293,-2.797c-0.72,-4.889 7.651,-11.573 18.683,-14.917c11.031,-3.345 20.572,-2.091 21.292,2.797Zm49.195,-6.996c0.732,4.968 -6.617,11.41 -16.4,14.376c-9.783,2.966 -18.32,1.34 -19.052,-3.628c-0.732,-4.968 6.616,-11.41 16.399,-14.376c9.783,-2.966 18.321,-1.341 19.053,3.628Z" style="fill:#2692ca;"/></g></g></svg>